<svg version="1.1" id="Layer_1" xmlns="http://www.w3.org/2000/svg" xmlns:xlink="http://www.w3.org/1999/xlink" x="0px" y="0px"
	 width="100%" viewBox="0 0 2000 1333" enable-background="new 0 0 2000 1333" xml:space="preserve">
<path fill="#EEEEEE" opacity="1.000000" stroke="none" 
	d="
M1067.000000,1334.000000 
	C711.333435,1334.000000 356.166870,1334.000000 1.000238,1334.000000 
	C1.000159,889.666931 1.000159,445.333801 1.000079,1.000536 
	C667.666199,1.000358 1334.332397,1.000358 2000.999023,1.000179 
	C2000.999268,445.332764 2000.999268,889.665527 2000.999634,1333.999146 
	C1689.833374,1334.000000 1378.666626,1334.000000 1067.000000,1334.000000 
M1141.620972,1044.168701 
	C1160.671997,1035.339233 1180.103516,1027.236694 1198.684570,1017.509583 
	C1226.347656,1003.028137 1251.276855,984.293579 1274.064331,963.073181 
	C1288.117920,949.985901 1300.949219,935.480286 1313.457764,920.865479 
	C1330.383179,901.089905 1344.285767,879.123047 1356.411743,856.115356 
	C1373.533203,823.628784 1386.792480,789.567200 1393.748169,753.476379 
	C1397.985962,731.486877 1401.189575,709.147705 1402.685913,686.820129 
	C1404.381836,661.514954 1402.900146,636.127136 1399.210449,610.883606 
	C1396.001221,588.927002 1391.234985,567.372437 1384.574463,546.274780 
	C1375.685913,518.119568 1363.821899,491.237488 1348.993286,465.630890 
	C1334.176270,440.044312 1317.112915,416.046600 1296.797119,394.693756 
	C1282.541870,379.710754 1266.813110,366.033508 1250.988892,352.664978 
	C1232.903564,337.386230 1213.004272,324.541290 1192.031494,313.515503 
	C1159.549561,296.439087 1125.802734,282.425995 1089.635010,275.485229 
	C1068.443237,271.418427 1047.003906,267.629120 1025.518555,266.341187 
	C992.720093,264.375122 959.864014,265.829651 927.401428,272.041107 
	C893.822266,278.466248 861.503052,288.733124 830.491394,303.159882 
	C792.365051,320.896454 757.874207,344.171570 727.135071,372.699554 
	C713.305176,385.534546 700.711731,399.818268 688.471375,414.221497 
	C671.404968,434.303528 657.279541,456.512482 645.065979,479.856628 
	C628.275818,511.948029 615.846252,545.680969 608.087219,581.092163 
	C602.984253,604.381409 599.776367,627.948364 599.065491,651.767761 
	C598.342468,675.993225 599.276062,700.148071 602.808167,724.221313 
	C606.028503,746.169250 610.785767,767.717407 617.433777,788.831055 
	C627.313843,820.209229 640.863770,849.986206 658.041504,878.043945 
	C672.326172,901.376282 688.470764,923.438904 707.691528,942.908630 
	C721.300171,956.693542 735.937805,969.522827 750.697693,982.095825 
	C768.872253,997.577515 789.059631,1010.272156 810.078613,1021.517578 
	C836.256775,1035.523193 863.624390,1046.744507 892.277283,1054.663818 
	C923.455627,1063.280884 955.154968,1068.718140 987.567261,1068.979980 
	C1002.517395,1069.100830 1017.518066,1068.986816 1032.415527,1067.889160 
	C1047.038696,1066.811646 1061.626343,1064.759155 1076.110718,1062.403198 
	C1098.329590,1058.789185 1119.841064,1052.358765 1141.620972,1044.168701 
M1574.724365,605.907532 
	C1572.775635,605.585693 1570.835327,605.061096 1568.876465,604.978577 
	C1562.080811,604.692627 1557.240234,602.373291 1554.529663,595.325073 
	C1551.606445,587.723450 1547.334595,580.640503 1543.210083,572.456055 
	C1538.531128,581.908508 1534.151123,590.429016 1530.106812,599.106018 
	C1528.697876,602.128845 1527.053955,603.657959 1523.551758,604.056885 
	C1513.869141,605.159851 1504.243408,606.762695 1494.074341,608.243774 
	C1495.017700,609.362610 1495.394287,609.901978 1495.860229,610.348022 
	C1502.695801,616.893311 1509.621460,623.347900 1516.311035,630.038879 
	C1517.427734,631.155884 1518.207520,633.382385 1517.990479,634.934998 
	C1516.568359,645.107483 1514.829590,655.235657 1513.069702,666.149719 
	C1519.415161,662.804504 1525.361694,660.182983 1530.755371,656.704346 
	C1538.615723,651.634888 1545.746704,649.163696 1554.330322,655.899902 
	C1559.522461,659.974609 1566.231079,662.116821 1573.436401,665.715576 
	C1572.298706,658.909241 1571.579346,653.253357 1570.380981,647.700806 
	C1567.282593,633.343384 1567.198486,633.361877 1577.651978,622.920593 
	C1580.479248,620.096436 1583.280884,617.245972 1586.139282,614.453674 
	C1588.052979,612.584167 1590.045776,610.795654 1592.694092,608.327026 
	C1586.302490,607.433167 1580.959717,606.685913 1574.724365,605.907532 
M394.983307,865.514404 
	C399.491821,868.376465 399.500275,872.359497 398.493622,877.106140 
	C396.705536,885.537415 395.471222,894.086182 393.830353,903.599731 
	C402.997345,898.786743 411.306946,894.740479 419.265564,890.093079 
	C422.552979,888.173340 425.030914,887.835876 428.376617,889.686523 
	C436.606628,894.238647 445.023651,898.452637 453.764191,903.010559 
	C453.886658,901.583252 454.124481,900.766663 453.995178,900.013062 
	C452.826447,893.200745 451.915558,886.321289 450.288330,879.617065 
	C448.673157,872.962402 448.940338,867.301514 455.294281,863.235046 
	C456.253326,862.621338 456.935638,861.587769 457.790131,860.796021 
	C462.857727,856.100586 467.938416,851.419373 473.105225,846.649780 
	C472.149078,845.821594 471.807861,845.265869 471.398010,845.209534 
	C463.229187,844.086792 455.065857,842.899963 446.872009,841.991699 
	C442.148926,841.468201 438.639496,840.135620 436.497681,835.182922 
	C432.926300,826.924500 428.524475,819.025208 424.055054,810.145752 
	C422.582977,812.973206 421.559814,814.812683 420.650909,816.706909 
	C417.359406,823.566833 414.280548,830.537720 410.715454,837.251160 
	C409.827637,838.922913 407.563873,840.502136 405.678589,840.890259 
	C399.235718,842.216614 392.675110,842.964294 386.168854,843.992371 
	C382.891022,844.510254 379.633484,845.156494 375.304260,845.935974 
	C382.258423,852.854370 388.370667,858.935181 394.983307,865.514404 
z"/>
<path fill="#D98F75" opacity="1.000000" stroke="none" 
	d="
M1141.283936,1044.370117 
	C1119.841064,1052.358765 1098.329590,1058.789185 1076.110718,1062.403198 
	C1061.626343,1064.759155 1047.038696,1066.811646 1032.415527,1067.889160 
	C1017.518066,1068.986816 1002.517395,1069.100830 987.567261,1068.979980 
	C955.154968,1068.718140 923.455627,1063.280884 892.277283,1054.663818 
	C863.624390,1046.744507 836.256775,1035.523193 810.078613,1021.517578 
	C789.059631,1010.272156 768.872253,997.577515 750.697693,982.095825 
	C735.937805,969.522827 721.300171,956.693542 707.691528,942.908630 
	C688.470764,923.438904 672.326172,901.376282 658.041504,878.043945 
	C640.863770,849.986206 627.313843,820.209229 617.433777,788.831055 
	C610.785767,767.717407 606.028503,746.169250 602.808167,724.221313 
	C599.276062,700.148071 598.342468,675.993225 599.065491,651.767761 
	C599.776367,627.948364 602.984253,604.381409 608.087219,581.092163 
	C615.846252,545.680969 628.275818,511.948029 645.065979,479.856628 
	C657.279541,456.512482 671.404968,434.303528 688.471375,414.221497 
	C700.711731,399.818268 713.305176,385.534546 727.135071,372.699554 
	C757.874207,344.171570 792.365051,320.896454 830.491394,303.159882 
	C861.503052,288.733124 893.822266,278.466248 927.401428,272.041107 
	C959.864014,265.829651 992.720093,264.375122 1025.518555,266.341187 
	C1047.003906,267.629120 1068.443237,271.418427 1089.635010,275.485229 
	C1125.802734,282.425995 1159.549561,296.439087 1192.031494,313.515503 
	C1213.004272,324.541290 1232.903564,337.386230 1250.988892,352.664978 
	C1266.813110,366.033508 1282.541870,379.710754 1296.797119,394.693756 
	C1317.112915,416.046600 1334.176270,440.044312 1348.993286,465.630890 
	C1363.821899,491.237488 1375.685913,518.119568 1384.574463,546.274780 
	C1391.234985,567.372437 1396.001221,588.927002 1399.210449,610.883606 
	C1402.900146,636.127136 1404.381836,661.514954 1402.685913,686.820129 
	C1401.189575,709.147705 1397.985962,731.486877 1393.748169,753.476379 
	C1386.792480,789.567200 1373.533203,823.628784 1356.411743,856.115356 
	C1344.285767,879.123047 1330.383179,901.089905 1313.457764,920.865479 
	C1300.949219,935.480286 1288.117920,949.985901 1274.064331,963.073181 
	C1251.276855,984.293579 1226.347656,1003.028137 1198.684570,1017.509583 
	C1180.103516,1027.236694 1160.671997,1035.339233 1141.283936,1044.370117 
M973.438354,730.934326 
	C981.102844,726.912598 988.843445,723.027100 996.396118,718.805481 
	C999.637512,716.993713 1002.287842,716.797852 1005.655090,718.656067 
	C1016.119141,724.430725 1026.771118,729.864929 1037.354492,735.423157 
	C1040.941772,737.307129 1044.541626,739.167114 1048.860596,741.415405 
	C1045.997803,724.430420 1043.469482,708.442688 1040.487671,692.540039 
	C1039.861206,689.198730 1040.691528,687.284363 1042.904541,685.140320 
	C1053.436890,674.936462 1063.868774,664.628723 1074.319092,654.340454 
	C1075.453857,653.223328 1076.477295,651.993042 1078.083130,650.233887 
	C1061.388306,647.744385 1045.498535,645.280151 1029.572754,643.076294 
	C1026.188721,642.608093 1024.310303,641.154114 1022.858032,638.129639 
	C1016.610168,625.117920 1010.159363,612.203613 1003.756104,599.266907 
	C1003.001282,597.742004 1002.083679,596.297791 1000.880737,594.181458 
	C999.587830,596.672485 998.724548,598.267090 997.922424,599.891907 
	C991.599609,612.698608 985.391602,625.564148 978.864441,638.265686 
	C977.870972,640.199036 975.590637,642.394043 973.605042,642.739197 
	C963.530151,644.490601 953.347351,645.611633 943.220032,647.075439 
	C937.009216,647.973145 930.830078,649.090027 924.636658,650.108521 
	C924.467407,650.597046 924.298096,651.085571 924.128784,651.574158 
	C925.572693,652.700195 927.132080,653.706665 928.442200,654.971375 
	C938.744385,664.916321 949.041260,674.867920 959.214661,684.943787 
	C960.490295,686.207153 961.985962,688.343994 961.768921,689.842957 
	C960.239014,700.410339 958.297302,710.918518 956.466858,721.442078 
	C955.355713,727.830078 954.208130,734.211609 952.877258,741.722778 
	C960.189331,737.867737 966.477905,734.552307 973.438354,730.934326 
z"/>
<path fill="#D98F75" opacity="1.000000" stroke="none" 
	d="
M1575.170654,605.923096 
	C1580.959717,606.685913 1586.302490,607.433167 1592.694092,608.327026 
	C1590.045776,610.795654 1588.052979,612.584167 1586.139282,614.453674 
	C1583.280884,617.245972 1580.479248,620.096436 1577.651978,622.920593 
	C1567.198486,633.361877 1567.282593,633.343384 1570.380981,647.700806 
	C1571.579346,653.253357 1572.298706,658.909241 1573.436401,665.715576 
	C1566.231079,662.116821 1559.522461,659.974609 1554.330322,655.899902 
	C1545.746704,649.163696 1538.615723,651.634888 1530.755371,656.704346 
	C1525.361694,660.182983 1519.415161,662.804504 1513.069702,666.149719 
	C1514.829590,655.235657 1516.568359,645.107483 1517.990479,634.934998 
	C1518.207520,633.382385 1517.427734,631.155884 1516.311035,630.038879 
	C1509.621460,623.347900 1502.695801,616.893311 1495.860229,610.348022 
	C1495.394287,609.901978 1495.017700,609.362610 1494.074341,608.243774 
	C1504.243408,606.762695 1513.869141,605.159851 1523.551758,604.056885 
	C1527.053955,603.657959 1528.697876,602.128845 1530.106812,599.106018 
	C1534.151123,590.429016 1538.531128,581.908508 1543.210083,572.456055 
	C1547.334595,580.640503 1551.606445,587.723450 1554.529663,595.325073 
	C1557.240234,602.373291 1562.080811,604.692627 1568.876465,604.978577 
	C1570.835327,605.061096 1572.775635,605.585693 1575.170654,605.923096 
z"/>
<path fill="#D98F75" opacity="1.000000" stroke="none" 
	d="
M394.733093,865.265198 
	C388.370667,858.935181 382.258423,852.854370 375.304260,845.935974 
	C379.633484,845.156494 382.891022,844.510254 386.168854,843.992371 
	C392.675110,842.964294 399.235718,842.216614 405.678589,840.890259 
	C407.563873,840.502136 409.827637,838.922913 410.715454,837.251160 
	C414.280548,830.537720 417.359406,823.566833 420.650909,816.706909 
	C421.559814,814.812683 422.582977,812.973206 424.055054,810.145752 
	C428.524475,819.025208 432.926300,826.924500 436.497681,835.182922 
	C438.639496,840.135620 442.148926,841.468201 446.872009,841.991699 
	C455.065857,842.899963 463.229187,844.086792 471.398010,845.209534 
	C471.807861,845.265869 472.149078,845.821594 473.105225,846.649780 
	C467.938416,851.419373 462.857727,856.100586 457.790131,860.796021 
	C456.935638,861.587769 456.253326,862.621338 455.294281,863.235046 
	C448.940338,867.301514 448.673157,872.962402 450.288330,879.617065 
	C451.915558,886.321289 452.826447,893.200745 453.995178,900.013062 
	C454.124481,900.766663 453.886658,901.583252 453.764191,903.010559 
	C445.023651,898.452637 436.606628,894.238647 428.376617,889.686523 
	C425.030914,887.835876 422.552979,888.173340 419.265564,890.093079 
	C411.306946,894.740479 402.997345,898.786743 393.830353,903.599731 
	C395.471222,894.086182 396.705536,885.537415 398.493622,877.106140 
	C399.500275,872.359497 399.491821,868.376465 394.733093,865.265198 
z"/>
<path fill="#FFFFFE" opacity="1.000000" stroke="none" 
	d="
M973.102417,731.085571 
	C966.477905,734.552307 960.189331,737.867737 952.877258,741.722778 
	C954.208130,734.211609 955.355713,727.830078 956.466858,721.442078 
	C958.297302,710.918518 960.239014,700.410339 961.768921,689.842957 
	C961.985962,688.343994 960.490295,686.207153 959.214661,684.943787 
	C949.041260,674.867920 938.744385,664.916321 928.442200,654.971375 
	C927.132080,653.706665 925.572693,652.700195 924.128784,651.574158 
	C924.298096,651.085571 924.467407,650.597046 924.636658,650.108521 
	C930.830078,649.090027 937.009216,647.973145 943.220032,647.075439 
	C953.347351,645.611633 963.530151,644.490601 973.605042,642.739197 
	C975.590637,642.394043 977.870972,640.199036 978.864441,638.265686 
	C985.391602,625.564148 991.599609,612.698608 997.922424,599.891907 
	C998.724548,598.267090 999.587830,596.672485 1000.880737,594.181458 
	C1002.083679,596.297791 1003.001282,597.742004 1003.756104,599.266907 
	C1010.159363,612.203613 1016.610168,625.117920 1022.858032,638.129639 
	C1024.310303,641.154114 1026.188721,642.608093 1029.572754,643.076294 
	C1045.498535,645.280151 1061.388306,647.744385 1078.083130,650.233887 
	C1076.477295,651.993042 1075.453857,653.223328 1074.319092,654.340454 
	C1063.868774,664.628723 1053.436890,674.936462 1042.904541,685.140320 
	C1040.691528,687.284363 1039.861206,689.198730 1040.487671,692.540039 
	C1043.469482,708.442688 1045.997803,724.430420 1048.860596,741.415405 
	C1044.541626,739.167114 1040.941772,737.307129 1037.354492,735.423157 
	C1026.771118,729.864929 1016.119141,724.430725 1005.655090,718.656067 
	C1002.287842,716.797852 999.637512,716.993713 996.396118,718.805481 
	C988.843445,723.027100 981.102844,726.912598 973.102417,731.085571 
z"/>
</svg>