
<svg version="1.1" id="Layer_1" xmlns="http://www.w3.org/2000/svg" xmlns:xlink="http://www.w3.org/1999/xlink" x="0px" y="0px"
	 width="100%" viewBox="0 0 2000 1333" enable-background="new 0 0 2000 1333" xml:space="preserve">
<path fill="#EEEEEE" opacity="1.000000" stroke="none" 
	d="
M2001.000000,315.000000 
	C2001.000000,549.697571 2001.000000,784.395203 2000.635864,1019.230652 
	C1999.848877,1020.210327 1999.159912,1021.017761 1999.046021,1021.899536 
	C1998.295166,1027.713135 1998.132935,1033.642334 1996.912231,1039.348389 
	C1993.511719,1055.243408 1990.400391,1071.254761 1985.872314,1086.841919 
	C1978.408325,1112.534302 1967.558472,1136.847900 1954.090210,1160.056641 
	C1939.634521,1184.966675 1922.070190,1207.428223 1902.214844,1228.125122 
	C1894.588989,1236.074219 1886.296997,1243.447998 1877.829590,1250.509766 
	C1867.996338,1258.710815 1857.893188,1266.642578 1847.449341,1274.045166 
	C1829.396118,1286.841309 1810.199341,1297.778687 1789.522461,1305.756592 
	C1773.528564,1311.927368 1757.507690,1318.396362 1740.967041,1322.679443 
	C1723.957153,1327.083984 1706.298828,1328.978882 1688.942017,1332.071289 
	C1688.203491,1332.202759 1687.643311,1333.334351 1687.000000,1334.000000 
	C1229.969116,1334.000000 772.938171,1334.000000 315.769348,1333.635986 
	C314.789703,1332.848999 313.982330,1332.160156 313.100708,1332.046143 
	C307.287018,1331.295410 301.357910,1331.132935 295.651855,1329.912109 
	C279.756714,1326.511597 263.745361,1323.399902 248.158218,1318.871826 
	C222.465561,1311.408325 198.151871,1300.558472 174.943237,1287.089966 
	C150.033554,1272.634399 127.571663,1255.070923 106.875374,1235.215332 
	C98.926224,1227.588989 91.551987,1219.296997 84.489975,1210.829590 
	C76.288940,1200.996338 68.357414,1190.893066 60.954685,1180.449219 
	C48.158524,1162.396240 37.221256,1143.199463 29.243380,1122.522461 
	C23.072384,1106.528687 16.603283,1090.507568 12.320302,1073.966919 
	C7.915793,1056.956909 6.020913,1039.298828 2.928612,1021.942017 
	C2.797042,1021.203552 1.665637,1020.643250 1.000005,1020.000000 
	C1.000000,785.302429 1.000000,550.604858 1.364049,315.769348 
	C2.150974,314.789703 2.839795,313.982300 2.953662,313.100677 
	C3.704491,307.286987 3.867048,301.357941 5.087788,295.651855 
	C8.488332,279.756714 11.599858,263.745300 16.127979,248.158142 
	C23.591745,222.465607 34.441441,198.151962 47.909931,174.943344 
	C62.365593,150.033661 79.929031,127.571762 99.784576,106.875404 
	C107.410866,98.926155 115.702888,91.552048 124.170418,84.490013 
	C134.003677,76.288948 144.106888,68.357277 154.550781,60.954659 
	C172.603912,48.158630 191.800522,37.221142 212.477524,29.243385 
	C228.471420,23.072510 244.492386,16.603312 261.033081,12.320292 
	C278.042999,7.915768 295.701172,6.020905 313.057983,2.928589 
	C313.796417,2.797029 314.356720,1.665625 315.000000,1.000000 
	C772.030945,1.000000 1229.061890,1.000000 1686.230713,1.364077 
	C1687.210327,2.151012 1688.017822,2.839793 1688.899536,2.953661 
	C1694.713135,3.704483 1700.642212,3.866985 1706.348267,5.087768 
	C1722.243286,8.488329 1738.254639,11.600164 1753.841797,16.128151 
	C1779.534424,23.591749 1803.847900,34.441498 1827.056519,47.909920 
	C1851.966553,62.365620 1874.428223,79.929649 1895.125000,99.785027 
	C1903.074219,107.410950 1910.447876,115.703018 1917.509766,124.170387 
	C1925.710815,134.003693 1933.642578,144.106766 1941.045288,154.550690 
	C1953.841187,172.603882 1964.778809,191.800446 1972.756592,212.477432 
	C1978.927490,228.471268 1985.396484,244.492264 1989.679443,261.032898 
	C1994.083984,278.042938 1995.979004,295.701141 1999.071289,313.058105 
	C1999.202881,313.796509 2000.334351,314.356781 2001.000000,315.000000 
M1327.018555,431.524323 
	C1317.026733,419.198151 1307.874634,406.051758 1296.835571,394.748413 
	C1282.257202,379.821198 1266.660278,365.788727 1250.656372,352.380005 
	C1232.262451,336.968903 1212.067505,323.998596 1190.749756,312.873169 
	C1158.648560,296.119965 1125.350098,282.364044 1089.686523,275.508179 
	C1068.496094,271.434631 1047.057983,267.631683 1025.573242,266.342773 
	C992.774719,264.375061 959.916931,265.824585 927.453552,272.035461 
	C893.708374,278.491516 861.248291,288.837799 830.089111,303.360687 
	C792.121338,321.057007 757.803345,344.283386 727.169678,372.668488 
	C713.330139,385.492157 700.748657,399.789215 688.501099,414.187256 
	C671.642334,434.006134 657.653381,455.911652 645.550476,478.935760 
	C628.463684,511.440735 615.857727,545.624390 607.991150,581.540100 
	C603.138184,603.697083 599.994385,626.117065 599.144043,648.731873 
	C598.196228,673.937988 599.084412,699.111511 602.798157,724.185547 
	C606.048340,746.129883 610.775024,767.684265 617.422424,788.797485 
	C627.301514,820.175415 640.829102,849.966370 658.032166,878.011414 
	C672.862915,902.189087 689.750366,924.897156 709.740295,945.057251 
	C721.291443,956.706787 733.538147,967.716492 745.988037,978.413391 
	C765.234009,994.949646 786.492065,1008.698242 808.714233,1020.850403 
	C830.536438,1032.783813 853.470886,1042.290161 877.077393,1050.125610 
	C909.225342,1060.796143 942.345032,1066.854248 976.057373,1068.758423 
	C994.435303,1069.796631 1012.983643,1068.941650 1031.395752,1067.894531 
	C1045.871094,1067.071289 1060.357422,1065.246460 1074.659180,1062.810425 
	C1107.558960,1057.206787 1139.012573,1046.619995 1169.322266,1032.830811 
	C1207.869141,1015.294128 1242.781494,991.950012 1273.856079,963.288086 
	C1288.089600,950.159668 1301.045532,935.512451 1313.577393,920.704712 
	C1331.682983,899.311096 1346.527588,875.625305 1359.191406,850.601868 
	C1370.720459,827.820740 1380.047974,804.200500 1387.287476,779.689819 
	C1396.176270,749.595825 1401.123047,718.837891 1402.802124,687.623352 
	C1403.630127,672.230408 1403.023926,656.677673 1401.887085,641.284363 
	C1400.673340,624.848816 1398.742554,608.399353 1395.932739,592.162231 
	C1389.926514,557.454163 1378.475098,524.421387 1363.343994,492.639862 
	C1353.215576,471.365784 1340.886719,451.402832 1327.018555,431.524323 
M1505.186646,606.790955 
	C1501.675171,607.234802 1498.163818,607.678589 1493.972290,608.208374 
	C1495.377686,609.733032 1496.203247,610.730957 1497.132690,611.620178 
	C1503.609985,617.817688 1510.179199,623.922180 1516.529785,630.246399 
	C1517.552734,631.264893 1518.253540,633.319641 1518.048706,634.743774 
	C1516.578247,644.970520 1514.835449,655.158081 1513.069702,666.030518 
	C1519.132935,662.937561 1525.024780,660.570251 1530.212524,657.138489 
	C1538.311523,651.780823 1545.647217,648.876221 1554.608032,656.022644 
	C1559.703491,660.086304 1566.362671,662.189026 1573.351685,665.693237 
	C1571.736450,655.258423 1570.694824,646.103516 1568.746582,637.145813 
	C1567.972900,633.587891 1568.859985,631.698975 1571.104248,629.366638 
	C1577.834961,622.371277 1584.349731,615.168274 1590.847168,608.156006 
	C1582.520874,606.859375 1573.356689,605.068359 1564.105835,604.155640 
	C1559.909180,603.741638 1557.872559,601.782776 1556.236816,598.480774 
	C1552.076660,590.082092 1547.872314,581.705322 1543.240112,572.427429 
	C1538.565186,581.842712 1534.132935,590.334351 1530.142578,599.028748 
	C1528.633179,602.317505 1526.824341,603.805359 1523.135010,604.069275 
	C1517.396973,604.479736 1511.710938,605.616333 1505.186646,606.790955 
M399.360565,870.165100 
	C397.607758,880.976135 395.854980,891.787231 393.941742,903.587769 
	C403.068237,898.743713 411.293945,894.222778 419.687134,890.037659 
	C421.655640,889.056091 424.515594,888.327209 426.399048,889.020630 
	C430.707672,890.606750 434.654144,893.167114 438.770294,895.287842 
	C443.661102,897.807678 448.575623,900.281555 454.446594,903.266907 
	C452.959808,894.563965 452.034271,887.043152 450.315552,879.708252 
	C448.759583,873.067871 449.179474,867.841431 455.141083,863.202026 
	C461.493378,858.258667 467.036682,852.275757 473.200592,846.495911 
	C472.064789,845.772461 471.567719,845.210266 471.004944,845.134277 
	C462.834534,844.030090 454.661163,842.942383 446.475830,841.956055 
	C441.982208,841.414612 438.604553,840.029053 436.545990,835.271240 
	C432.966248,826.997803 428.557098,819.083191 424.056519,810.146057 
	C419.775391,818.896423 415.549988,826.542786 412.283661,834.579041 
	C410.313690,839.425903 407.243561,841.445068 402.460938,841.901611 
	C399.505737,842.183716 396.554047,842.537598 393.617584,842.972595 
	C387.862579,843.825012 382.119293,844.756592 374.832458,845.895935 
	C383.580078,854.466187 391.279480,862.009521 399.360565,870.165100 
z"/>
<path fill="#000000" opacity="0.000000" stroke="none" 
	d="
M314.531342,1.000000 
	C314.356720,1.665625 313.796417,2.797029 313.057983,2.928589 
	C295.701172,6.020905 278.042999,7.915768 261.033081,12.320292 
	C244.492386,16.603312 228.471420,23.072510 212.477524,29.243385 
	C191.800522,37.221142 172.603912,48.158630 154.550781,60.954659 
	C144.106888,68.357277 134.003677,76.288948 124.170418,84.490013 
	C115.702888,91.552048 107.410866,98.926155 99.784576,106.875404 
	C79.929031,127.571762 62.365593,150.033661 47.909931,174.943344 
	C34.441441,198.151962 23.591745,222.465607 16.127979,248.158142 
	C11.599858,263.745300 8.488332,279.756714 5.087788,295.651855 
	C3.867048,301.357941 3.704491,307.286987 2.953662,313.100677 
	C2.839795,313.982300 2.150974,314.789703 1.364049,315.315735 
	C1.000000,210.406265 1.000000,105.812538 1.000000,1.000000 
	C105.354126,1.000000 209.708405,1.000000 314.531342,1.000000 
z"/>
<path fill="#000000" opacity="0.000000" stroke="none" 
	d="
M2001.000000,314.531372 
	C2000.334351,314.356781 1999.202881,313.796509 1999.071289,313.058105 
	C1995.979004,295.701141 1994.083984,278.042938 1989.679443,261.032898 
	C1985.396484,244.492264 1978.927490,228.471268 1972.756592,212.477432 
	C1964.778809,191.800446 1953.841187,172.603882 1941.045288,154.550690 
	C1933.642578,144.106766 1925.710815,134.003693 1917.509766,124.170387 
	C1910.447876,115.703018 1903.074219,107.410950 1895.125000,99.785027 
	C1874.428223,79.929649 1851.966553,62.365620 1827.056519,47.909920 
	C1803.847900,34.441498 1779.534424,23.591749 1753.841797,16.128151 
	C1738.254639,11.600164 1722.243286,8.488329 1706.348267,5.087768 
	C1700.642212,3.866985 1694.713135,3.704483 1688.899536,2.953661 
	C1688.017822,2.839793 1687.210327,2.151012 1686.684326,1.364077 
	C1791.593750,1.000000 1896.187378,1.000000 2001.000000,1.000000 
	C2001.000000,105.354126 2001.000000,209.708405 2001.000000,314.531372 
z"/>
<path fill="#000000" opacity="0.000000" stroke="none" 
	d="
M1.000005,1020.468628 
	C1.665637,1020.643250 2.797042,1021.203552 2.928612,1021.942017 
	C6.020913,1039.298828 7.915793,1056.956909 12.320302,1073.966919 
	C16.603283,1090.507568 23.072384,1106.528687 29.243380,1122.522461 
	C37.221256,1143.199463 48.158524,1162.396240 60.954685,1180.449219 
	C68.357414,1190.893066 76.288940,1200.996338 84.489975,1210.829590 
	C91.551987,1219.296997 98.926224,1227.588989 106.875374,1235.215332 
	C127.571663,1255.070923 150.033554,1272.634399 174.943237,1287.089966 
	C198.151871,1300.558472 222.465561,1311.408325 248.158218,1318.871826 
	C263.745361,1323.399902 279.756714,1326.511597 295.651855,1329.912109 
	C301.357910,1331.132935 307.287018,1331.295410 313.100708,1332.046143 
	C313.982330,1332.160156 314.789703,1332.848999 315.315704,1333.635986 
	C210.406250,1334.000000 105.812515,1334.000000 1.000000,1334.000000 
	C1.000000,1229.645874 1.000000,1125.291504 1.000005,1020.468628 
z"/>
<path fill="#000000" opacity="0.000000" stroke="none" 
	d="
M1687.468628,1334.000000 
	C1687.643311,1333.334351 1688.203491,1332.202759 1688.942017,1332.071289 
	C1706.298828,1328.978882 1723.957153,1327.083984 1740.967041,1322.679443 
	C1757.507690,1318.396362 1773.528564,1311.927368 1789.522461,1305.756592 
	C1810.199341,1297.778687 1829.396118,1286.841309 1847.449341,1274.045166 
	C1857.893188,1266.642578 1867.996338,1258.710815 1877.829590,1250.509766 
	C1886.296997,1243.447998 1894.588989,1236.074219 1902.214844,1228.125122 
	C1922.070190,1207.428223 1939.634521,1184.966675 1954.090210,1160.056641 
	C1967.558472,1136.847900 1978.408325,1112.534302 1985.872314,1086.841919 
	C1990.400391,1071.254761 1993.511719,1055.243408 1996.912231,1039.348389 
	C1998.132935,1033.642334 1998.295166,1027.713135 1999.046021,1021.899536 
	C1999.159912,1021.017761 1999.848877,1020.210327 2000.635864,1019.684265 
	C2001.000000,1124.593750 2001.000000,1229.187500 2001.000000,1334.000000 
	C1896.645874,1334.000000 1792.291504,1334.000000 1687.468628,1334.000000 
z"/>
<path fill="#D98F75" opacity="1.000000" stroke="none" 
	d="
M1327.259521,431.792664 
	C1340.886719,451.402832 1353.215576,471.365784 1363.343994,492.639862 
	C1378.475098,524.421387 1389.926514,557.454163 1395.932739,592.162231 
	C1398.742554,608.399353 1400.673340,624.848816 1401.887085,641.284363 
	C1403.023926,656.677673 1403.630127,672.230408 1402.802124,687.623352 
	C1401.123047,718.837891 1396.176270,749.595825 1387.287476,779.689819 
	C1380.047974,804.200500 1370.720459,827.820740 1359.191406,850.601868 
	C1346.527588,875.625305 1331.682983,899.311096 1313.577393,920.704712 
	C1301.045532,935.512451 1288.089600,950.159668 1273.856079,963.288086 
	C1242.781494,991.950012 1207.869141,1015.294128 1169.322266,1032.830811 
	C1139.012573,1046.619995 1107.558960,1057.206787 1074.659180,1062.810425 
	C1060.357422,1065.246460 1045.871094,1067.071289 1031.395752,1067.894531 
	C1012.983643,1068.941650 994.435303,1069.796631 976.057373,1068.758423 
	C942.345032,1066.854248 909.225342,1060.796143 877.077393,1050.125610 
	C853.470886,1042.290161 830.536438,1032.783813 808.714233,1020.850403 
	C786.492065,1008.698242 765.234009,994.949646 745.988037,978.413391 
	C733.538147,967.716492 721.291443,956.706787 709.740295,945.057251 
	C689.750366,924.897156 672.862915,902.189087 658.032166,878.011414 
	C640.829102,849.966370 627.301514,820.175415 617.422424,788.797485 
	C610.775024,767.684265 606.048340,746.129883 602.798157,724.185547 
	C599.084412,699.111511 598.196228,673.937988 599.144043,648.731873 
	C599.994385,626.117065 603.138184,603.697083 607.991150,581.540100 
	C615.857727,545.624390 628.463684,511.440735 645.550476,478.935760 
	C657.653381,455.911652 671.642334,434.006134 688.501099,414.187256 
	C700.748657,399.789215 713.330139,385.492157 727.169678,372.668488 
	C757.803345,344.283386 792.121338,321.057007 830.089111,303.360687 
	C861.248291,288.837799 893.708374,278.491516 927.453552,272.035461 
	C959.916931,265.824585 992.774719,264.375061 1025.573242,266.342773 
	C1047.057983,267.631683 1068.496094,271.434631 1089.686523,275.508179 
	C1125.350098,282.364044 1158.648560,296.119965 1190.749756,312.873169 
	C1212.067505,323.998596 1232.262451,336.968903 1250.656372,352.380005 
	C1266.660278,365.788727 1282.257202,379.821198 1296.835571,394.748413 
	C1307.874634,406.051758 1317.026733,419.198151 1327.259521,431.792664 
M983.297607,725.780701 
	C987.860291,723.369202 992.500305,721.090820 996.958069,718.498962 
	C999.877380,716.801575 1002.367798,716.876526 1005.339417,718.487427 
	C1016.578735,724.580200 1027.933228,730.460754 1039.249878,736.410522 
	C1042.213135,737.968445 1045.195679,739.489441 1048.972534,741.442749 
	C1045.921021,723.989136 1042.988770,707.728394 1040.355469,691.419250 
	C1040.071289,689.659851 1040.976440,687.077393 1042.252930,685.796448 
	C1052.838501,675.174255 1063.647461,664.774902 1074.369629,654.288452 
	C1075.501343,653.181641 1076.508789,651.947876 1078.067017,650.229126 
	C1061.345825,647.739563 1045.438843,645.277649 1029.496216,643.072388 
	C1026.091919,642.601501 1024.272827,641.062805 1022.829102,638.057617 
	C1016.578186,625.045898 1010.125244,612.131226 1003.717773,599.195129 
	C1002.973389,597.692200 1002.055237,596.275330 1000.858459,594.193909 
	C999.551880,596.731995 998.695618,598.337158 997.890869,599.967773 
	C991.569885,612.776672 985.364319,625.644714 978.831787,638.344666 
	C977.842957,640.266907 975.514648,642.425110 973.521545,642.754822 
	C961.156067,644.799988 948.703979,646.316589 936.292786,648.093384 
	C932.382568,648.653198 928.509644,649.473572 923.622925,650.354370 
	C936.154846,662.495667 947.796936,673.695923 959.303040,685.034180 
	C960.568420,686.281067 961.978455,688.456787 961.753296,689.968018 
	C960.155518,700.692322 958.134766,711.353210 956.278259,722.039490 
	C955.203308,728.226685 954.182983,734.423401 952.955017,741.700684 
	C963.543274,736.130188 973.083313,731.111206 983.297607,725.780701 
z"/>
<path fill="#D98F75" opacity="1.000000" stroke="none" 
	d="
M1505.594727,606.618042 
	C1511.710938,605.616333 1517.396973,604.479736 1523.135010,604.069275 
	C1526.824341,603.805359 1528.633179,602.317505 1530.142578,599.028748 
	C1534.132935,590.334351 1538.565186,581.842712 1543.240112,572.427429 
	C1547.872314,581.705322 1552.076660,590.082092 1556.236816,598.480774 
	C1557.872559,601.782776 1559.909180,603.741638 1564.105835,604.155640 
	C1573.356689,605.068359 1582.520874,606.859375 1590.847168,608.156006 
	C1584.349731,615.168274 1577.834961,622.371277 1571.104248,629.366638 
	C1568.859985,631.698975 1567.972900,633.587891 1568.746582,637.145813 
	C1570.694824,646.103516 1571.736450,655.258423 1573.351685,665.693237 
	C1566.362671,662.189026 1559.703491,660.086304 1554.608032,656.022644 
	C1545.647217,648.876221 1538.311523,651.780823 1530.212524,657.138489 
	C1525.024780,660.570251 1519.132935,662.937561 1513.069702,666.030518 
	C1514.835449,655.158081 1516.578247,644.970520 1518.048706,634.743774 
	C1518.253540,633.319641 1517.552734,631.264893 1516.529785,630.246399 
	C1510.179199,623.922180 1503.609985,617.817688 1497.132690,611.620178 
	C1496.203247,610.730957 1495.377686,609.733032 1493.972290,608.208374 
	C1498.163818,607.678589 1501.675171,607.234802 1505.594727,606.618042 
z"/>
<path fill="#D98F75" opacity="1.000000" stroke="none" 
	d="
M399.169739,869.859009 
	C391.279480,862.009521 383.580078,854.466187 374.832458,845.895935 
	C382.119293,844.756592 387.862579,843.825012 393.617584,842.972595 
	C396.554047,842.537598 399.505737,842.183716 402.460938,841.901611 
	C407.243561,841.445068 410.313690,839.425903 412.283661,834.579041 
	C415.549988,826.542786 419.775391,818.896423 424.056519,810.146057 
	C428.557098,819.083191 432.966248,826.997803 436.545990,835.271240 
	C438.604553,840.029053 441.982208,841.414612 446.475830,841.956055 
	C454.661163,842.942383 462.834534,844.030090 471.004944,845.134277 
	C471.567719,845.210266 472.064789,845.772461 473.200592,846.495911 
	C467.036682,852.275757 461.493378,858.258667 455.141083,863.202026 
	C449.179474,867.841431 448.759583,873.067871 450.315552,879.708252 
	C452.034271,887.043152 452.959808,894.563965 454.446594,903.266907 
	C448.575623,900.281555 443.661102,897.807678 438.770294,895.287842 
	C434.654144,893.167114 430.707672,890.606750 426.399048,889.020630 
	C424.515594,888.327209 421.655640,889.056091 419.687134,890.037659 
	C411.293945,894.222778 403.068237,898.743713 393.941742,903.587769 
	C395.854980,891.787231 397.607758,880.976135 399.169739,869.859009 
z"/>
<path fill="#FFFFFE" opacity="1.000000" stroke="none" 
	d="
M982.960449,725.936462 
	C973.083313,731.111206 963.543274,736.130188 952.955017,741.700684 
	C954.182983,734.423401 955.203308,728.226685 956.278259,722.039490 
	C958.134766,711.353210 960.155518,700.692322 961.753296,689.968018 
	C961.978455,688.456787 960.568420,686.281067 959.303040,685.034180 
	C947.796936,673.695923 936.154846,662.495667 923.622925,650.354370 
	C928.509644,649.473572 932.382568,648.653198 936.292786,648.093384 
	C948.703979,646.316589 961.156067,644.799988 973.521545,642.754822 
	C975.514648,642.425110 977.842957,640.266907 978.831787,638.344666 
	C985.364319,625.644714 991.569885,612.776672 997.890869,599.967773 
	C998.695618,598.337158 999.551880,596.731995 1000.858459,594.193909 
	C1002.055237,596.275330 1002.973389,597.692200 1003.717773,599.195129 
	C1010.125244,612.131226 1016.578186,625.045898 1022.829102,638.057617 
	C1024.272827,641.062805 1026.091919,642.601501 1029.496216,643.072388 
	C1045.438843,645.277649 1061.345825,647.739563 1078.067017,650.229126 
	C1076.508789,651.947876 1075.501343,653.181641 1074.369629,654.288452 
	C1063.647461,664.774902 1052.838501,675.174255 1042.252930,685.796448 
	C1040.976440,687.077393 1040.071289,689.659851 1040.355469,691.419250 
	C1042.988770,707.728394 1045.921021,723.989136 1048.972534,741.442749 
	C1045.195679,739.489441 1042.213135,737.968445 1039.249878,736.410522 
	C1027.933228,730.460754 1016.578735,724.580200 1005.339417,718.487427 
	C1002.367798,716.876526 999.877380,716.801575 996.958069,718.498962 
	C992.500305,721.090820 987.860291,723.369202 982.960449,725.936462 
z"/>
</svg>
